<?xml version="1.0" standalone="no"?>
<!DOCTYPE svg PUBLIC "-//W3C//DTD SVG 20010904//EN"
 "http://www.w3.org/TR/2001/REC-SVG-20010904/DTD/svg10.dtd">
<svg version="1.0" xmlns="http://www.w3.org/2000/svg"
 width="330.000000pt" height="330.000000pt" viewBox="0 0 330.000000 330.000000"
 preserveAspectRatio="xMidYMid meet">
<metadata>
Created by potrace 1.11, written by Peter Selinger 2001-2013
</metadata>
<g transform="translate(0.000000,330.000000) scale(0.100000,-0.100000)"
fill="#000000" stroke="none">
<path d="M283 3129 c-62 -31 -97 -87 -97 -158 0 -71 17 -100 99 -171 33 -29
74 -64 90 -79 17 -14 80 -69 140 -121 61 -52 119 -103 129 -112 11 -10 22 -18
26 -18 4 0 257 537 307 652 l12 28 -332 0 c-315 0 -334 -1 -374 -21z"/>
<path d="M1268 3098 c-13 -29 -100 -230 -193 -446 -160 -372 -169 -395 -151
-407 10 -8 33 -27 50 -42 60 -54 112 -98 166 -143 29 -25 58 -50 64 -56 24
-22 226 -194 229 -194 2 0 21 37 42 83 21 45 74 156 117 246 43 90 78 165 78
166 0 2 32 70 71 151 86 181 238 501 286 604 19 41 37 78 40 83 2 4 -171 7
-386 7 l-390 0 -23 -52z"/>
<path d="M2377 3098 c-14 -29 -53 -111 -86 -181 -34 -71 -61 -130 -61 -132 0
-1 -24 -54 -54 -116 -29 -63 -81 -172 -114 -244 -33 -71 -78 -168 -100 -215
-21 -47 -49 -107 -62 -135 -12 -27 -47 -101 -76 -163 -30 -63 -54 -115 -54
-117 0 -2 -26 -59 -59 -126 -32 -68 -70 -149 -84 -179 -126 -272 -184 -398
-293 -633 -161 -349 -194 -418 -204 -438 -16 -31 -120 -260 -120 -265 0 -3
159 -4 353 -2 340 3 354 4 401 25 74 35 122 92 178 212 27 58 65 138 83 176
89 187 155 328 155 330 0 2 36 78 80 170 44 92 80 168 80 170 0 2 32 70 71
152 39 81 82 173 96 203 14 30 52 111 84 179 33 68 59 125 59 126 0 1 36 78
80 169 44 92 80 169 80 170 0 2 29 64 64 137 70 149 119 253 178 379 22 47 49
105 61 130 49 103 10 214 -90 256 -25 11 -99 14 -327 14 l-295 0 -24 -52z"/>
</g>
</svg>
